# xmcd CD database file
#
# Track frame offsets:
#	150
#	23535
#	43847
#	69200
#	93935
#	109550
#	132062
#	155602
#	172805
#	190102
#	217360
#	236222
#	266932
#
# Disc length: 3810 seconds
#
# Revision: 0
# Processed by: cddbd v1.5PL3 Copyright (c) Steve Scherf et al.
# Submitted via: CDex 1.51
#
DISCID=b00ee00d
DTITLE=Heartland - Heartland III
DYEAR=1995
DGENRE=Salsa
TTITLE0=The Way Of The Buffalo
TTITLE1=Voodoo Eyes
TTITLE2=Ready To Receive
TTITLE3=Law Of The Jungle
TTITLE4=Don't Say Goodbye
TTITLE5=Nothing Left To Lose
TTITLE6=Broken Angel
TTITLE7=Until The Last Man Falls
TTITLE8=One Step At A Time
TTITLE9=When Angels Call
TTITLE10=Waiting For The Big One
TTITLE11=The Mighty Fall
TTITLE12=Stranger In This City
EXTD=YEAR: 1995
EXTT0=
EXTT1=
EXTT2=
EXTT3=
EXTT4=
EXTT5=
EXTT6=
EXTT7=
EXTT8=
EXTT9=
EXTT10=
EXTT11=
EXTT12=
PLAYORDER=
